<?xml version="1.0" encoding="utf-8"?>
<!-- Generator: Adobe Illustrator 26.2.1, SVG Export Plug-In . SVG Version: 6.00 Build 0)  -->
<svg version="1.1" id="图层_1" xmlns="http://www.w3.org/2000/svg" xmlns:xlink="http://www.w3.org/1999/xlink" x="0px" y="0px"
	 viewBox="0 0 192.76 79" style="enable-background:new 0 0 192.76 79;" xml:space="preserve">
<style type="text/css">
	.st0{fill:#008000;}
</style>
<g>
	<g id="XMLID_00000061437812076999538260000011216744113336142506_">
		<g>
			<path class="st0" d="M188.44,35.51c1.87,3.77,2.81,8.07,2.81,12.9c0,0.81-0.24,1.44-0.71,1.91c-0.46,0.46-1.08,0.69-1.84,0.69
				h-36.8c0.18,3.66,1.09,6.92,2.73,9.8c1.63,2.88,3.83,5.12,6.58,6.73s5.83,2.42,9.22,2.42c2.29,0,4.58-0.42,6.9-1.26
				c2.31-0.83,4.14-1.93,5.49-3.29c0.58-0.5,1.2-0.75,1.84-0.75s1.17,0.19,1.58,0.56c0.64,0.56,0.97,1.21,0.97,1.95
				c0,0.62-0.27,1.21-0.79,1.76c-1.88,1.8-4.32,3.29-7.34,4.46c-3.01,1.18-5.9,1.77-8.65,1.77c-4.62,0-8.73-1.1-12.34-3.3
				c-3.6-2.2-6.42-5.26-8.47-9.19s-3.07-8.38-3.07-13.33c0-5.01,0.95-9.49,2.85-13.42s4.57-6.99,7.99-9.19
				c3.43-2.2,7.34-3.3,11.73-3.3c4.27,0,8.09,1.07,11.46,3.21C183.94,28.77,186.56,31.73,188.44,35.51z M151.99,46.18h34.16
				c-0.41-5.26-2.16-9.5-5.27-12.72c-3.1-3.22-7.02-4.83-11.76-4.83c-4.57,0-8.42,1.61-11.55,4.83S152.58,40.92,151.99,46.18z"/>
			<path class="st0" d="M134.25,46.93v24.98c0,0.8-0.25,1.47-0.74,1.99c-0.5,0.53-1.13,0.79-1.89,0.79s-1.39-0.26-1.89-0.79
				c-0.5-0.52-0.75-1.19-0.75-1.99V46.93c0-5.88-1.56-10.37-4.69-13.47c-3.14-3.09-7.22-4.64-12.26-4.64c-3.1,0-5.92,0.64-8.47,1.9
				c-2.55,1.27-4.55,3.04-6.02,5.3c-1.46,2.26-2.19,4.75-2.19,7.47v28.42c0,0.8-0.24,1.47-0.7,1.99c-0.47,0.53-1.12,0.79-1.94,0.79
				c-0.76,0-1.39-0.26-1.88-0.79c-0.5-0.52-0.75-1.19-0.75-1.99V26.68c0-0.86,0.25-1.54,0.75-2.04c0.49-0.49,1.12-0.74,1.88-0.74
				c0.82,0,1.47,0.25,1.94,0.74c0.46,0.5,0.7,1.18,0.7,2.04v4.83c1.99-2.6,4.42-4.62,7.29-6.08c2.87-1.45,6-2.18,9.39-2.18
				c4.28,0,8.1,0.93,11.47,2.78c3.36,1.86,6,4.57,7.9,8.13S134.25,41.98,134.25,46.93z"/>
			<path class="st0" d="M72.74,5.7c0.79,0.74,1.18,1.79,1.18,3.15c0,1.24-0.39,2.28-1.18,3.12c-0.79,0.83-1.78,1.25-2.95,1.25
				s-2.13-0.42-2.89-1.25c-0.77-0.84-1.15-1.88-1.15-3.12c0-1.36,0.41-2.41,1.23-3.15c0.82-0.75,1.79-1.12,2.9-1.12
				S71.95,4.95,72.74,5.7z"/>
			<path class="st0" d="M72.52,26.68v45.23c0,0.8-0.24,1.47-0.71,1.99c-0.47,0.53-1.11,0.79-1.93,0.79c-0.76,0-1.39-0.26-1.89-0.79
				c-0.49-0.52-0.74-1.19-0.74-1.99V26.68c0-0.86,0.25-1.54,0.74-2.04c0.5-0.49,1.13-0.74,1.89-0.74c0.82,0,1.46,0.25,1.93,0.74
				C72.28,25.14,72.52,25.82,72.52,26.68z"/>
			<path class="st0" d="M57.15,4.77c0,0.68-0.15,1.27-0.44,1.76L32.47,47.58v24.33c0,0.8-0.25,1.47-0.75,1.99
				c-0.49,0.53-1.12,0.79-1.88,0.79c-0.77,0-1.4-0.26-1.89-0.79c-0.5-0.52-0.75-1.19-0.75-1.99V47.58L2.96,6.53
				C2.61,5.85,2.44,5.27,2.44,4.77c0-0.74,0.23-1.36,0.7-1.86c0.47-0.49,1.08-0.74,1.84-0.74s1.47,0.37,2.11,1.11l22.75,39.19
				L52.23,3.93c0.41-0.68,0.8-1.14,1.19-1.39c0.38-0.25,0.83-0.37,1.36-0.37c0.7,0,1.27,0.25,1.71,0.74
				C56.93,3.41,57.15,4.03,57.15,4.77z"/>
		</g>
		<g>
		</g>
	</g>
</g>
</svg>
